<?xml version="1.0" encoding="UTF-8"?>
<!DOCTYPE svg PUBLIC "-//W3C//DTD SVG 1.1//EN" "http://www.w3.org/Graphics/SVG/1.1/DTD/svg11.dtd">
<!-- Creator: CorelDRAW X6 -->
<svg xmlns="http://www.w3.org/2000/svg" xml:space="preserve" width="100%" height="100%" version="1.1" style="shape-rendering:geometricPrecision; text-rendering:geometricPrecision; image-rendering:optimizeQuality; fill-rule:evenodd; clip-rule:evenodd"
viewBox="0 0 500 500"
 xmlns:xlink="http://www.w3.org/1999/xlink">
 <defs>
  <style type="text/css">
   <![CDATA[
    .str0 {stroke:#e0fd4d;stroke-width:7.5}
    .str1 {stroke:#6FAE00;stroke-width:7.5}
    .fil5 {fill:none}
    .fil4 {fill:#ff105e}
    .fil2 {fill:#707070}
    .fil3 {fill:url(#id0)}
    .fil0 {fill:url(#id1)}
    .fil1 {fill:url(#id2)}
   ]]>
  </style>
  <linearGradient id="id0" gradientUnits="userSpaceOnUse" x1="360.124" y1="65.89" x2="139.876" y2="65.89">
   <stop offset="0" style="stop-color:#707070"/>
   <stop offset="0.2" style="stop-color:#fff"/>
   <stop offset="0.4" style="stop-color:#fff"/>
   <stop offset="1" style="stop-color:#707070"/>
  </linearGradient>
  <linearGradient id="id1" gradientUnits="userSpaceOnUse" x1="414.194" y1="271.682" x2="85.806" y2="271.682">
   <stop offset="0" style="stop-color:#42c5e4"/>
   <stop offset="0.380392" style="stop-color:#42c5e4"/>
   <stop offset="1" style="stop-color:#42c5e4"/>
  </linearGradient>
  <linearGradient id="id2" gradientUnits="userSpaceOnUse" x1="250" y1="441.254" x2="250" y2="102.747">
   <stop offset="0" style="stop-color:#091921"/>
   <stop offset="1" style="stop-color:#091921"/>
  </linearGradient>
 </defs>
 <g id="Layer_x0020_1">
  <metadata id="CorelCorpID_0Corel-Layer"/>
  <rect class="fil0" x="86" y="63" width="328" height="417" rx="15" ry="14"/>
  <path class="fil1" d="M312 464l-200 0c-5,0 -9,-4 -9,-9l0 -366c0,-5 4,-9 9,-9l276 0c5,0 9,4 9,9l0 290 -85 85z"/>
  <path class="fil2" d="M312 464l0 0 0 -76c0,-5 4,-9 9,-9l76 0 -85 85z"/>
  <path class="fil3" d="M354 112l-208 0c-1,0 -5,-2 -5,-5 -1,-3 1,-6 2,-8l25 -47c1,-1 1,-2 3,-2l48 0c2,0 7,-3 7,-8l0 -12c0,-5 4,-10 10,-10l28 0c6,0 10,5 10,10l0 12c0,5 5,8 7,8l46 0c2,0 4,1 5,2l25 47c1,2 3,5 2,8 0,3 -4,5 -5,5z"/>
  <polygon class="fil4" points="131,136 173,136 173,178 131,178 "/>
  <path class="fil5 str0" d="M189 140l161 0m-13 17l-148 0m0 18l182 0m-84 48l-98 0m0 18l173 0m-26 17l-147 0m0 49l176 0m-49 17l-127 0m0 17l147 0m-147 49l112 0m-112 18l80 0m-80 17l93 0"/>
  <polyline class="fil5 str1" points="139,155 149,165 165,148 "/>
  <polygon class="fil4" points="131,220 173,220 173,262 131,262 "/>
  <polyline class="fil5 str1" points="139,239 149,248 165,231 "/>
  <polygon class="fil4" points="131,303 173,303 173,345 131,345 "/>
  <polyline class="fil5 str1" points="139,322 149,332 165,315 "/>
  <polygon class="fil4" points="131,387 173,387 173,428 131,428 "/>
  <polyline class="fil5 str1" points="139,405 149,415 165,398 "/>
 </g>
</svg>
