<svg xmlns="http://www.w3.org/2000/svg" viewBox="0 0 64 64" id="key">
<path fill="#e0fd4d" d="m28.68 33.95-26.3 26.3-.36-4.29 3-.44c.89-.13 1.59-.87 1.66-1.78l.22-3.17 1.76-1.76 3.18-.24c.93-.08 1.68-.8 1.78-1.73l.31-2.87 2.92-.13c1-.04 1.8-.84 1.85-1.84l.16-3.12 2.6-.9c.61-.21 1.07-.7 1.24-1.32l.71-2.59 2.69-2.7 2.58 2.58zM32.63 37.9 8.51 62.03l-4.75-.41 26.29-26.3z"></path>
<path fill="#ff105e" d="M58.54 8.16c-2.98-3.73-7.21-5.93-11.93-6.2h-.22c-.08 0-.16-.01-.24-.01-.15-.01-.3-.01-.46-.01h-.12c-4.29.03-8.42 1.75-11.47 4.8-4.11 4.11-5.72 9.93-4.3 15.58a2.9 2.9 0 0 1-1.31 3.19l-2.37 1.43c-.26.16-.43.42-.47.72-.03.29.07.59.28.8l3.26 3.26 6.35 6.35c.22.21.51.31.81.28.29-.04.55-.21.71-.46l1.43-2.37a2.82 2.82 0 0 1 2.37-1.39c.27-.02.55.01.83.08 1.26.32 2.53.48 3.77.49 5 .09 9.78-2.12 13.05-6.18 4.72-5.89 4.74-14.45.03-20.36zm-4.58 9.81A5.586 5.586 0 0 1 50 19.6c-.7 0-1.4-.13-2.06-.39a5.43 5.43 0 0 1-.8-.4c-.39-.22-.76-.5-1.1-.84a5.607 5.607 0 0 1 0-7.93c.37-.37.77-.67 1.2-.91.04-.03.09-.05.14-.08 2.12-1.11 4.81-.78 6.58.99a5.625 5.625 0 0 1 0 7.93z"></path>
<path fill="#55d725" d="M53.96 10.04c-1.77-1.77-4.46-2.1-6.58-.99-.05.03-.1.05-.14.08-.43.24-.83.54-1.2.91a5.607 5.607 0 0 0 0 7.93c.34.34.71.62 1.1.84.26.16.53.29.8.4.66.26 1.36.39 2.06.39 1.43 0 2.87-.54 3.96-1.63a5.625 5.625 0 0 0 0-7.93zm-1.37 6.55a3.674 3.674 0 0 1-4.68.42c-.18-.12-.34-.26-.5-.42l-.04-.04a3.649 3.649 0 0 1 .04-5.13c.06-.06.12-.11.18-.16.68-.62 1.55-.92 2.41-.92.94 0 1.87.36 2.59 1.08a3.652 3.652 0 0 1 0 5.17z"></path>
<path fill="#091921" d="M60.06 6.95C56.73 2.78 52 .33 46.72.03c-.09 0-.17-.01-.26-.01-.14-.01-.28-.01-.41-.01h-.3c-4.85-.03-9.56 1.9-13.02 5.35-4.59 4.6-6.4 11.12-4.81 17.43.1.41-.07.84-.44 1.06l-2.37 1.43a2.91 2.91 0 0 0-1.38 2.14c-.11.9.19 1.77.83 2.41l.17.17-2.7 2.69c-.23.24-.41.54-.5.87l-.7 2.59-2.61.9c-.75.26-1.26.94-1.3 1.73l-.16 3.12-2.91.13c-.97.05-1.74.77-1.84 1.73l-.32 2.87-3.18.25c-.47.04-.9.24-1.22.56L5.53 49.2c-.33.33-.53.76-.56 1.23l-.23 3.17-3.91.57c-.5.07-.87.53-.82 1.04l.62 7.28c0 .06.03.11.05.17.01.04.01.09.03.13.1.23.28.4.5.5.04.02.09.02.13.04.06.01.11.04.17.04l1.32.11 5.96.52h.08c.26 0 .51-.1.69-.28l9.7-9.71 3.1-3.1L34 39.27l.17.17c.4.4.89.67 1.42.78.2.06.42.08.63.08.12 0 .24-.01.36-.03.89-.1 1.67-.61 2.14-1.38l1.43-2.37c.22-.36.65-.54 1.06-.43 1.13.29 2.27.46 3.4.53 5.89.36 11.58-2.13 15.41-6.89 5.29-6.59 5.31-16.17.04-22.78zM2.38 60.25l-.36-4.29 3-.44c.89-.13 1.59-.87 1.66-1.78l.22-3.17 1.76-1.76 3.18-.24c.93-.08 1.68-.8 1.78-1.73l.31-2.87 2.92-.13c1-.04 1.8-.84 1.85-1.84l.16-3.12 2.6-.9c.61-.21 1.07-.7 1.24-1.32l.71-2.59 2.69-2.7 2.58 2.58-26.3 26.3zm6.13 1.78-3.79-.33-.96-.08L17.08 48.3c.01-.01.02-.02.02-.03l12.95-12.95 2.58 2.58L8.51 62.03zm50-33.51c-3.27 4.06-8.05 6.27-13.05 6.18a15.86 15.86 0 0 1-3.77-.49c-.28-.07-.56-.1-.83-.08-.96.02-1.86.53-2.37 1.39l-1.43 2.37c-.16.25-.42.42-.71.46-.3.03-.59-.07-.81-.28l-6.35-6.35-3.26-3.26a.994.994 0 0 1-.28-.8c.04-.3.21-.56.47-.72l2.37-1.43a2.9 2.9 0 0 0 1.31-3.19c-1.42-5.65.19-11.47 4.3-15.58 3.05-3.05 7.18-4.77 11.47-4.8h.12c.16 0 .31 0 .46.01.08 0 .16.01.24.01h.22c4.72.27 8.95 2.47 11.93 6.2 4.71 5.91 4.69 14.47-.03 20.36z"></path>
</svg>
