<svg
        id="emjy2Mkp6Pu1"
        xmlns="http://www.w3.org/2000/svg"
        xmlns:xlink="http://www.w3.org/1999/xlink"
        viewBox="0 0 1280 960"
        shape-rendering="geometricPrecision"
        text-rendering="geometricPrecision"
      >
        <path
          id="pulse_1"
          stroke="red"
          stroke-width="1px"
          d="M138.774788,525.1L249.619634, 525.1C280.87182,530.241949,
          285.441826,485.92911, 305.024186,458C318.016939
          "
          fill="none"
          stroke-linecap="round"
        />
        <path
          id="pulse_2"
          stroke="red"
          stroke-width="1px"
          d="M305.024186,458C318.016939,
          432.869438,326.903049, 480.286264,345.027472,
          511.5C367.939797,585.323914, 377.942191,346.526452,
          406.932558,193.636824L442.11543, 662.410427C450.96695,749.537551,
          463.164,597.194597, 478.53844,502C482.701446"
          fill="none"
          stroke-linecap="round"
        />
        <path
          id="pulse_3"
          stroke="red"
          stroke-width="1px"
          d="M478.53844,502.701446, 478.53844,502C482.701446, 
          470.032335,490.271629, 490.15355,507.040782,
          511.5C526.563185,540.794177, 523.3733,437.840898, 539.64346,383.5C557.984866,
          320.331274,563.137252,
          452.873029,590.847667,
          527.2C602.907028,568.704217,
          610.469762,517.233724,
          623.250329,502C631.541501"
          fill="none"
          stroke-linecap="round"
        />
        <path
          id="pulse_4"
          stroke="red"
          stroke-width="1px"
          d="M623.250329,502C631.541501,
          488.549917,634.93232,
          505.478295,645.552161,
          517.4C680.193567,539.085026,
          619.158175,528.527658,
          756.480965,531.937821"
          fill="none"
          stroke-linecap="round"
        />
      </svg>